# xmcd CD database file
#
# Track frame offsets:
#	150
#	42350
#	59470
#	87110
#	120111
#	126776
#	167842
#	177723
#	200617
#	210546
#	223780
#	231233
#	252143
#	267857
#	311585
#
# Disc length: 4234 seconds
#
# Revision: 1
# Processed by: cddbd v1.4PL0 Copyright (c) Steve Scherf et al.
# Submitted via: CDex 1.50beta8
#
DISCID=d910880f
DTITLE=Jazzorange - Nord-Sud
DYEAR=1997
DGENRE=Jazz
TTITLE0=Not disturb
TTITLE1=Yasamale
TTITLE2=Tan fresco
TTITLE3=Namaste
TTITLE4=Magic India
TTITLE5=Flores en el cementerio
TTITLE6=Intro tashi deleg
TTITLE7=Tashi deleg
TTITLE8=Mission accomplie
TTITLE9=Siempre pa'lante
TTITLE10=Rubensong
TTITLE11=New-York
TTITLE12=Les innocents
TTITLE13=Salva la selva
TTITLE14=Présentation "Nord-Sud"
EXTD=YEAR: 1997
EXTT0=
EXTT1=
EXTT2=
EXTT3=
EXTT4=
EXTT5=
EXTT6=
EXTT7=
EXTT8=
EXTT9=
EXTT10=
EXTT11=
EXTT12=
EXTT13=
EXTT14=
PLAYORDER=
